<?xml version="1.0" encoding="utf-8"?>
<!-- Generator: Adobe Illustrator 16.0.0, SVG Export Plug-In . SVG Version: 6.00 Build 0)  -->
<!DOCTYPE svg PUBLIC "-//W3C//DTD SVG 1.1//EN" "http://www.w3.org/Graphics/SVG/1.1/DTD/svg11.dtd">
<svg version="1.1" id="Logo_x5F_Final" xmlns="http://www.w3.org/2000/svg" xmlns:xlink="http://www.w3.org/1999/xlink" x="0px"
	 y="0px" width="640px" height="480px" viewBox="0 0 640 480" enable-background="new 0 0 640 480" xml:space="preserve">
<g>
	<g>
		<g>
			<g>
				<path fill-rule="evenodd" clip-rule="evenodd" fill="#E66A00" d="M69.204,200.364c0,0,11.815,0.283,26.504,4.221
					c14.449,3.874,21.26,6.115,33.968,10.293c26.94,8.9,42.39,15.341,59.298,29.268c12.708,10.467,80.95,56.1,80.95,56.1
					s42.151,32.512,65.217,33.208c0,0,4.461,0.413-1.109-6.986c0,0-29.965-31.249-33.359-90.851
					c-3.417-59.624-11.555-97.706-32.446-114.417c0,0-3.156-3.112-6.833,2.132c0,0-26.396,25.482-40.126,34.969
					c0,0-13.949,11.642-28.964,15.733c0,0-13.774,6.158-44.043,8.508c0,0-53.684,0.914-71.136-1.654c0,0-1.305-0.174-2.589,2.481
					c0,0-6.549,11.577-7.42,13.1c0,0-2.088,3.068-0.566,3.46C68.071,200.298,69.204,200.364,69.204,200.364z"/>
				<path fill-rule="evenodd" clip-rule="evenodd" fill="#E66A00" d="M294.296,132.383c0,0-15.603-27.375,4.722-37.69
					c0,0,3.59-1.219,4.222,5.397c0.631,6.615-0.718,11.468,4.569,9.096c5.267-2.394,2.959-7.986,19.585-16.561
					c0,0,8.248-5.375,5.354,1.719c0,0-7.986,13.971,0.675,8.444c0,0,9.901-11.795,22.457-15.93c0,0,4.656-3.068,2.176,3.373
					c-2.48,6.441-4.939,9.858,0.74,9.75c0,0,10.162-7.595,17.104-10.859s13.1-4.352,13.1-4.352s-3.96,7.812-5.723,11.446
					c-1.784,3.657-3.612,5.223,0.501,4.44c4.091-0.783,9.988-12.708,20.389-13.514c10.404-0.783,5.224,2.416,1.677,6.572
					c-3.569,4.156-6.921,6.312-0.914,5.898c6.008-0.392,10.512-7.225,28.529-9.75c0,0,5.723-1.153,0,7.072
					c-5.702,8.226-1.284,7.182,2.546,5.44c3.83-1.74,24.916-8.334,26.984-8.465c2.045-0.152,5.266,1.132,1.327,5.854
					c0,0-7.117,7.138,5.526,4.374c0,0,11.577-2.437,18.191-2.677c6.616-0.261,3.265,2.285,0,7.116
					c-3.264,4.809-3.415,11.381-0.761,9.553c14.95-10.358,31.097-5.766,31.097-5.766s5.33,0,0.848,7.921
					c-4.461,7.942,0.392,6.528,4.092,5.614c3.742-0.892,18.562,1.197,20.933,1.958c2.372,0.762,4.767,3.438,0,6.616
					c-4.766,3.199-16.102,10.75-4.786,10.51c11.314-0.218,20.106,1.719,20.106,1.719s7.508,1.588,0.262,5.875
					c-7.246,4.309-11.294,7.551-1.981,6.92c0,0,16.3,1.893,18.322,6.114c2.024,4.222-0.564,5.375-4.308,6.463
					c-3.722,1.088-12.882,2.329-6.746,4.984c6.158,2.655,20.912,11.359,20.912,11.359s3.372,4.939-3.046,5.027
					c-6.442,0.065-14.668-0.718-6.508,6.071c0,0,1.654,0.413,4.94,2.111c3.285,1.719,9.227,6.919,9.227,6.919
					s5.637,4.048-1.979,4.962c0,0-11.208,0.326-8.966,3.351c2.241,3.024,11.162,10.01,11.162,10.01s6.269,5.44,0.35,7.116
					c0,0-13.253-3.068-4.418,8.422c8.856,11.489,9.314,12.815,9.314,12.815s1.153,4.244-5.984,3.265
					c-7.16-1.001-8.596-0.979-6.007,3.961c2.567,4.939,4.374,11.381,4.483,13.382c0.108,2.003,1.045,8.422-2.852,5.288
					c-3.896-3.112-10.424-8.835-9.9-7.377c0.544,1.459,2.567,3.786,4.134,6.224c1.546,2.438,4.722,12.077,2.742,15.103
					c-1.979,3.002-4.287,2.677-7.921,0c-3.612-2.676-10.488-6.05-5.876,0.109c4.614,6.157,7.639,19.736,7.639,19.736
					s1.088,5.963-5.179,2.155c-6.289-3.832-10.381-7.334-7.791-0.959c2.59,6.377,2.525,15.713,1.828,17.365
					c-0.675,1.654-1.697,6.268-5.614,0c-3.917-6.267-4.7-7.941-8.922-4.111c0,0-55.882,46.851-180.289,12.49
					c0,0-6.637-1.307-26.81-29.355c0,0-18.801-29.921-26.068-62.628C310.42,217.185,316.057,170.138,294.296,132.383z"/>
				<path fill-rule="evenodd" clip-rule="evenodd" fill="#E66A00" d="M420.488,355.954l12.556,0.717c0,0,3.568,0.544,2.677,4.026
					c-0.894,3.482-0.806,10.968,0.805,15.45c1.61,4.504,4.744,18.301-6.637,18.976c0,0-29.161-3.83-35.755-2.654
					c-6.594,1.195-4.831-4.245-1.871-6.029c2.959-1.783,6.854-3.241,12.577-4.352c5.726-1.109,15.518-1.109,16.322-11.969
					C421.989,359.218,415.396,356.758,420.488,355.954z"/>
				<path fill-rule="evenodd" clip-rule="evenodd" fill="#E66A00" d="M381.513,349.426l8.684,1.958c0,0,3.328-0.261,3.307,8.661
					c-0.043,8.921-0.652,19.932-3.896,20.803c-3.242,0.871-10.162-0.675-16.167-0.695c-6.007-0.023-19.804,0.804-22.153,0.173
					s-6.224-2.721-1.871-6.136c4.352-3.416,11.882-2.786,15.885-3.178c4.026-0.392,11.185-0.304,13.731-7.355
					C381.621,356.584,379.445,350.187,381.513,349.426z"/>
				<path fill-rule="evenodd" clip-rule="evenodd" fill="#E66A00" d="M526.768,347.205c0.174-0.151,14.449-6.614,14.449-6.614
					s2.263-0.806,2.132,2.654c-0.108,3.461,0.196,10.771,3.178,15.732c2.98,4.983,4.656,7.138,4.656,7.138
					s10.271,10.749-1.545,16.43c0,0-7.442,2.285-14.384,3.655c-6.941,1.394-16.277,4.636-17.714,5.44
					c-1.436,0.806-7.702,5.397-4.352-3.198c3.372-8.617,10.14-14.536,21.5-22.435c0,0,5.744-4.985-0.262-11.578
					C534.427,354.43,524.569,349.033,526.768,347.205z"/>
				<path fill-rule="evenodd" clip-rule="evenodd" fill="#E66A00" d="M495.301,354.43l10.424-1.74c0,0,2.285-1.894,4.068,5.94
					c0,0,1.067,8.377,3.679,12.729c0,0,3.917,10.185-7.442,12.209s-31.074,5.874-31.074,5.874s-7.225-2.153-2.09-5.396
					c5.115-3.265,3.33-2.241,12.883-6.201c9.553-3.961,9.771-7.923,10.097-10.794c0.327-2.895-0.087-7.596-0.087-7.596
					S493.974,355.583,495.301,354.43z"/>
			</g>
			<path fill-rule="evenodd" clip-rule="evenodd" fill="#FFFFFF" d="M230.689,191.963c1.045,5.354-7.007,11.925-14.993,13.144
				c-10.054,1.544-14.993-4.178-14.993-9.64c0-5.462,7.029-11.337,15.081-11.86C223.182,183.151,229.036,183.608,230.689,191.963z"
				/>
			<path fill-rule="evenodd" clip-rule="evenodd" d="M63.109,172.814c2.634,0.892,5.941,1.676,8.074,3.569
				c2.741,2.416,1.022,6.637-0.153,9.4c-1.414,3.373-3.308,6.964-5.897,9.575c-3.199,3.243-4.765,4.461-9.292,3.33
				c-3.112-0.783-7.421-2.002-9.423-4.722c-1.849-2.546,0.11-6.137,1.328-8.508C50.902,179.277,56.386,174.512,63.109,172.814
				C64.372,173.228,61.979,173.098,63.109,172.814"/>
			<path fill-rule="evenodd" clip-rule="evenodd" d="M214.847,199.667c-6.659,0.021-6.984-10.141-0.413-10.163
				C221.093,189.461,221.397,199.645,214.847,199.667C211.736,199.667,217.676,199.667,214.847,199.667"/>
		</g>
	</g>
</g>
</svg>
