<?xml version="1.0" encoding="UTF-8" standalone="no"?>
<svg
   xmlns:dc="http://purl.org/dc/elements/1.1/"
   xmlns:cc="http://creativecommons.org/ns#"
   xmlns:rdf="http://www.w3.org/1999/02/22-rdf-syntax-ns#"
   xmlns:svg="http://www.w3.org/2000/svg"
   xmlns="http://www.w3.org/2000/svg"
   width="15mm"
   height="10mm"
   viewBox="0 0 53.149605 35.43307"
   id="svg2"
   version="1.1">
  <defs
     id="defs4" />
  <metadata
     id="metadata7">
    <rdf:RDF>
      <cc:Work
         rdf:about="">
        <dc:format>image/svg+xml</dc:format>
        <dc:type
           rdf:resource="http://purl.org/dc/dcmitype/StillImage" />
        <dc:title></dc:title>
      </cc:Work>
    </rdf:RDF>
  </metadata>
  <g
     id="layer1"
     transform="translate(-1.9276451,-198.28378)" />
  <path
     style="fill:#000000;stroke-width:0.16553442"
     d="M 26.480306,25.545967 C 25.976725,25.469774 24.386958,24.788389 23.245838,23.982888 21.197913,22.537297 18.263824,20.513756 17.045448,19.706691 16.368866,19.258522 15.337619,18.539268 14.753793,18.108347 12.834875,16.692009 11.920167,16.223919 9.7814795,15.563857 9.4742024,15.469017 8.5691317,15.170744 7.7702098,14.901015 6.4251188,14.4469 4.9864693,14.035045 4.2642339,14.031056 c -0.3107661,-0.0019 -1.1397481,-0.314072 -0.899786,-0.462379 0.456686,-0.77959 0.2712927,-0.391473 0.456686,-0.77959 0.2783274,-0.582673 0.3792081,-0.699206 0.5787534,-0.668591 1.0056601,0.154284 6.0249627,0.241545 6.8900477,0.119781 0.215096,-0.03027 0.642491,-0.08541 0.949768,-0.122523 1.106889,-0.133693 2.875848,-0.687442 4.134286,-1.29417 0.605031,-0.291707 3.381448,-2.531465 4.380611,-3.5338768 0.444877,-0.4463218 0.837579,-0.811492 0.872677,-0.811492 0.171482,0 1.220547,1.1103666 1.422575,1.5057085 0.451487,2.0500153 -0.590017,0.7211302 -1.035857,0.9892062 -0.749665,-0.1318724 -1.405334,0.5861833 -2.051788,1.1609471 -0.422701,0.375821 -1.691628,1.43357 -3.154003,2.085796 -2.071612,0.923949 -4.466256,1.490338 -4.830656,2.090587 -0.25954,0.427534 0.81082,0.755069 1.981789,1.461807 1.263019,0.762294 2.674822,1.902285 3.56867,2.269618 l 1.617752,0.935427 c 0.501301,0.42098 1.914649,1.2322 2.644167,1.745493 2.347939,1.820716 3.190384,2.181839 5.676189,4.075682 0.06243,0.03856 -0.712113,-0.388425 -0.712113,-0.388425 -0.351065,-0.901701 0.514778,1.255203 -0.273696,1.135905 z"
     id="path3673" />
  <path
     style="fill:#000000;stroke-width:0.16553442"
     d="m 29.80884,20.280316 c 0.138341,0.694761 1.281449,3.624252 2.07345,3.418192 -0.430187,-0.09495 1.53479,1.373584 1.378701,1.372514 -0.384128,-0.0025 -1.516472,1.120206 -2.054745,0.884131 -0.659347,-0.28918 -1.93055,-0.761037 -2.521321,-1.878298 -0.577373,-1.091933 -1.646682,-3.434826 -1.869371,-4.09587 -0.335948,-0.997239 -0.63935,-2.394834 -0.711794,-3.278794 -0.412888,-5.038128 -0.672726,-6.359943 -1.691316,-8.6037792 -0.653033,-1.4385645 -0.90502,-2.4220374 -0.733386,-2.8623249 0.155538,-0.3990145 0.850863,-1.0198184 1.091351,-0.9743866 0.157988,0.029824 0.231616,0.1919596 0.309246,0.6808878 0.05604,0.3529496 0.144033,0.6417247 0.195537,0.6417247 0.05148,0 0.383856,-0.2891171 0.738547,-0.6424845 0.578607,-0.5764549 1.726186,-1.2697027 1.867648,-1.1282405 0.0302,0.030267 -0.05452,0.3141853 -0.188401,0.6310047 -0.133858,0.3168194 -0.209094,0.6103119 -0.167208,0.6522041 0.04192,0.041854 0.36712,-0.2013625 0.722729,-0.5405527 0.650121,-0.6201138 1.142013,-0.9344574 1.722982,-1.1010764 0.361137,-0.1035782 0.375188,-0.056291 0.146199,0.4917206 -0.347314,0.8312275 -0.16667,0.9410679 0.625572,0.3803796 0.662607,-0.4689446 2.08503,-1.1536443 2.186285,-1.05239 0.04306,0.043057 -0.08565,0.3836532 -0.286008,0.7568776 -0.200356,0.3732245 -0.335252,0.7076277 -0.299762,0.7431183 0.03552,0.035459 0.253082,-0.1267404 0.483547,-0.3605099 0.518029,-0.5254763 1.463935,-0.9799144 1.940687,-0.9323614 l 0.352614,0.035206 -0.462258,0.4750106 c -0.485649,0.4990404 -0.606602,0.7867898 -0.266721,0.6345442 0.367437,-0.1645865 2.764829,-0.9419543 2.904993,-0.9419543 0.212076,0 0.169849,0.1829365 -0.155848,0.6750941 -0.16263,0.2457558 -0.266645,0.4758718 -0.231136,0.5113814 0.03552,0.035522 0.596768,-0.1192181 1.24725,-0.3438252 0.785574,-0.2712483 1.332801,-0.396868 1.629719,-0.3740983 l 0.44701,0.034256 -0.299368,0.4194667 c -0.16465,0.2307112 -0.264701,0.4541406 -0.222328,0.496514 0.04236,0.042361 0.447619,-0.01526 0.900537,-0.1280258 0.768636,-0.1914024 1.750963,-0.2001405 1.9339,-0.017223 0.03888,0.038878 -0.08932,0.2976399 -0.284862,0.5750555 -0.320796,0.4551169 -0.454698,0.8330713 -0.295139,0.8330713 0.03324,0 0.213248,-0.1131331 0.400066,-0.251404 0.291244,-0.215565 0.50736,-0.2568937 1.515768,-0.2898579 0.704449,-0.023048 1.22184,0.00728 1.290168,0.075623 0.0776,0.077604 0.03464,0.2426215 -0.134446,0.5161683 -0.344218,0.5569587 -0.25364,0.7269717 0.330407,0.6201707 0.624749,-0.1142412 2.241196,0.2330045 2.230229,0.479096 -0.0032,0.074356 -0.307258,0.3500431 -0.67543,0.612642 -0.368178,0.2625988 -0.639046,0.526578 -0.601941,0.5866176 0.0371,0.060027 0.454191,0.1130381 0.926847,0.1177617 0.89687,0.00899 1.707038,0.1879515 1.775113,0.3921697 0.02184,0.065605 -0.215597,0.2582678 -0.527706,0.4281415 -0.695438,0.3785052 -0.675879,0.5711742 0.05344,0.5263252 0.426432,-0.02621 0.68437,0.04154 1.249143,0.328217 0.39146,0.198696 0.71175,0.424798 0.71175,0.502453 0,0.07766 -0.310158,0.233808 -0.68924,0.347004 -0.62069,0.185349 -1.011036,0.483875 -0.632987,0.484097 0.473396,2.85e-4 2.216121,1.066877 2.216121,1.356336 0,0.04705 -0.314261,0.10047 -0.698357,0.118763 -0.608128,0.02894 -0.698358,0.06161 -0.698358,0.252562 0,0.15279 0.113247,0.251772 0.373453,0.3264 0.205402,0.05889 0.607658,0.320422 0.893901,0.581147 l 0.520442,0.474048 -0.314546,0.12139 c -0.173008,0.06676 -0.434018,0.12139 -0.580033,0.12139 -0.599642,0 -0.478031,0.332858 0.363828,0.99582 0.322645,0.254076 0.586624,0.536215 0.586624,0.626965 0,0.176028 -0.02634,0.18533 -0.585091,0.206909 -0.556503,0.02153 -0.534854,0.336714 0.06518,0.949002 0.503884,0.51418 0.801562,1.059311 0.68311,1.250966 -0.034,0.05509 -0.373788,0.06851 -0.755022,0.02989 -0.673689,-0.06826 -0.68798,-0.06427 -0.508748,0.141925 0.443889,0.510672 0.75879,2.055821 0.418967,2.055821 -0.0676,0 -0.298894,-0.175984 -0.51399,-0.391081 -0.21509,-0.21509 -0.411907,-0.39108 -0.437361,-0.39108 -0.02546,0 0.09271,0.210176 0.262586,0.467064 0.243419,0.368095 0.307607,0.593076 0.302946,1.061831 -0.0081,0.818202 -0.119522,0.887448 -0.766983,0.47684 -0.590316,-0.374364 -0.792533,-0.35842 -0.430117,0.03394 0.31554,0.341597 0.563176,0.975476 0.604461,1.547277 0.0423,0.58551 -0.08962,0.645885 -0.682762,0.31252 -0.51059,-0.286971 -0.66761,-0.23256 -0.406145,0.14074 0.09846,0.140557 0.178726,0.432929 0.178384,0.649716 -6.33e-4,0.485363 -0.199684,1.232186 -0.328191,1.232186 -0.05218,0 -0.254121,-0.248219 -0.448797,-0.551596 l -0.353956,-0.551589 -0.422981,0.422981 c -0.306492,0.306492 0.801632,-0.304333 0,0 -0.44613,0.169367 -0.133047,-1.676961 0.342274,-5.471804 0.172967,-1.380902 0.435661,-4.764078 -0.669158,-6.747956 C 46.023819,10.478087 44.006135,9.7223241 43.23679,8.9887164 41.989154,7.8615524 31.715671,4.7609813 27.951627,8.2395385 26.563264,9.5225952 29.65227,19.493969 29.808859,20.280347 Z"
     id="path3675" />
  <path
     style="fill:#000000;stroke-width:0.16553442"
     d="m 34.646543,31.708532 c -0.950635,-0.05559 -1.746651,-0.119249 -1.768914,-0.141519 -0.02229,-0.02229 0.01304,-0.140455 0.07841,-0.262643 0.142203,-0.265701 0.977381,-0.690626 1.359135,-0.6915 0.574771,-0.0013 1.054638,-0.221505 1.312747,-0.602359 0.313863,-0.463113 0.340318,-0.898378 0.08466,-1.392764 -0.105662,-0.204326 -0.175832,-0.382241 -0.155937,-0.395361 0.01988,-0.01311 0.388142,0.0044 0.818329,0.03831 l 0.782167,0.06218 0.074,0.949762 c 0.04071,0.522373 0.129368,1.125758 0.197038,1.340848 0.238841,0.759195 -0.05908,1.248275 -0.738579,1.212595 -0.173046,-0.0091 -1.09242,-0.06199 -2.043062,-0.117553 z"
     id="path3677" />
  <path
     style="fill:#000000;stroke-width:0.16553442"
     d="m 30.795353,30.529845 c -1.511134,-0.03666 -1.814631,-0.125258 -1.627446,-0.475017 0.137239,-0.256437 0.686163,-0.446972 1.287698,-0.446972 1.192453,0 1.619556,-0.355153 1.707874,-1.420144 l 0.04996,-0.602599 0.348834,0.06995 c 0.702315,0.140822 0.72556,0.160584 0.803981,0.683522 0.09785,0.652552 -0.02514,1.696039 -0.238246,2.02128 -0.123555,0.188572 -0.258673,0.247402 -0.526749,0.229343 -0.198317,-0.01336 -1.010979,-0.04008 -1.805918,-0.05933 z"
     id="path3679" />
  <path
     style="fill:#000000;stroke-width:0.16553442"
     d="m 40.527885,31.209429 c -0.251119,-0.251119 0.270159,-0.679356 1.146596,-0.941942 0.244129,-0.07315 0.584643,-0.279942 0.756701,-0.459548 0.272932,-0.284913 0.313121,-0.414686 0.315141,-1.017539 l 0.0025,-0.690974 0.465981,-0.0983 c 0.590284,-0.124524 0.814378,-0.03812 0.814378,0.314103 0,0.153297 0.100564,0.533847 0.223474,0.845677 0.256261,0.65014 0.284628,1.110448 0.0838,1.359857 -0.08787,0.109132 -0.719823,0.283381 -1.703992,0.469844 -1.623906,0.30767 -1.978654,0.344553 -2.104387,0.21882 z"
     id="path3681" />
  <path
     style="fill:#000000;stroke-width:0.16553442"
     d="m 44.252467,31.557712 c 0,-0.467761 0.944855,-1.705791 1.596514,-2.091882 0.476233,-0.282165 0.638236,-0.50643 0.638236,-0.883561 0,-0.243014 -0.09934,-0.375162 -0.446954,-0.594602 -0.62207,-0.392696 -0.580849,-0.615739 0.170362,-0.921838 0.87538,-0.356692 0.946811,-0.339855 0.948102,0.22348 0.0013,0.512059 0.351867,1.352696 0.824794,1.977109 0.70412,0.929657 0.16876,1.492435 -1.697951,1.784927 -0.387459,0.06072 -0.975159,0.238443 -1.305998,0.394956 -0.706405,0.334181 -0.727105,0.337354 -0.727105,0.111411 z"
     id="path3683" />
  <path
     style="fill:#000000;stroke-width:0.16553442"
     d="M 1.6207248,13.468316 C 1.1095334,13.268581 1.0129205,13.174957 1.0129205,12.879311 c 0,-0.467627 0.820824,-1.471869 1.301679,-1.592556 0.4306743,-0.108093 1.0686695,0.237138 1.0685682,0.578222 -8.87e-5,0.31875 -0.4224871,1.159824 -0.7438972,1.481234 -0.3161039,0.316104 -0.4736872,0.334998 -1.0185457,0.122105 z"
     id="path3701" />
  <path
     style="fill:#000000;stroke-width:0.16553442"
     d="m 35.993578,31.78123 c -3.037825,-0.203668 -3.081402,-0.20817 -3.081402,-0.31839 0,-0.289244 0.86164,-0.815328 1.335384,-0.815328 0.442952,0 1.014715,-0.232661 1.260952,-0.513104 0.368045,-0.419181 0.458522,-0.812541 0.294278,-1.279384 -0.07359,-0.209157 -0.152455,-0.437354 -0.17525,-0.507094 -0.03622,-0.110879 0.03622,-0.122745 0.577095,-0.09452 1.023522,0.05344 0.947083,-0.0126 1.01006,0.872284 0.0302,0.424172 0.10556,0.995643 0.167481,1.269937 0.18412,0.81555 0.115039,1.180536 -0.255381,1.349315 -0.184532,0.08407 -0.344078,0.08919 -1.133217,0.03628 z"
     id="path3703" />
  <path
     style="fill:#000000;stroke-width:0.16553442"
     d="m 19.750274,13.675891 c -0.511192,-0.199735 -0.607805,-0.293359 -0.607805,-0.589005 0,-0.467627 0.820824,-1.471869 1.301679,-1.592556 0.430675,-0.108093 1.06867,0.237138 1.068569,0.578222 -8.9e-5,0.31875 -0.422488,1.159824 -0.743898,1.481234 -0.316104,0.316104 -0.473687,0.334998 -1.018545,0.122105 z"
     id="path3701-3" />
</svg>
